<?xml version="1.0" encoding="iso-8859-1"?>
<!-- Generator: Adobe Illustrator 19.0.0, SVG Export Plug-In . SVG Version: 6.00 Build 0)  -->
<svg version="1.1" id="Layer_1" xmlns="http://www.w3.org/2000/svg" xmlns:xlink="http://www.w3.org/1999/xlink" x="0px" y="0px"
	 viewBox="0 0 512.001 512.001" style="enable-background:new 0 0 512.001 512.001;" xml:space="preserve">
<path style="fill:#E6608D;" d="M436.706,217.53l-176-128c-2.806-2.041-6.605-2.041-9.411,0l-176,128
	c-2.07,1.505-3.294,3.91-3.294,6.47v264c0,4.418,3.582,8,8,8h352c4.418,0,8-3.582,8-8V223.999
	C440.001,221.44,438.776,219.034,436.706,217.53z"/>
<path style="fill:#D4506F;" d="M287.968,109.356l-27.262-19.827c-2.806-2.041-6.605-2.041-9.411,0l-176,128
	c-2.07,1.505-3.294,3.91-3.294,6.47v264c0,4.418,3.582,8,8,8h16v-248L287.968,109.356z"/>
<path style="fill:#38C7C2;" d="M508.767,201.575l-248-184c-2.83-2.1-6.703-2.1-9.533,0l-248,184
	c-3.423,2.539-4.254,7.316-1.89,10.862l32,48c2.499,3.749,7.793,4.676,11.418,1.991L256,105.955l211.238,156.473
	c3.626,2.686,8.92,1.756,11.418-1.991l32-48C513.021,208.891,512.19,204.114,508.767,201.575z"/>
<path style="fill:#FCDE76;" d="M256.001,303.556c-20.585,0-40.755,9.582-56.794,26.979c-14.531,15.764-23.206,35.584-23.206,53.021
	c0,35.29,35.888,64,80,64s80-28.71,80-64c0-17.437-8.675-37.257-23.206-53.021C296.756,313.138,276.586,303.556,256.001,303.556z"/>
<path style="fill:#FCCF6F;" d="M264.001,439.999c-44.112,0-80-28.71-80-64c0-17.437,8.675-37.257,23.206-53.021
	c0.293-0.317,0.596-0.613,0.892-0.925c-3.078,2.581-6.052,5.402-8.892,8.482c-14.531,15.764-23.206,35.584-23.206,53.021
	c0,35.29,35.888,64,80,64c26.643,0,50.269-10.483,64.817-26.553C306.31,432.724,286.2,439.999,264.001,439.999z"/>
<path style="fill:#FCDE76;" d="M285.309,302.261c14.718,3.84,28.768-5.982,35.955-18.236c2.268-3.867,3.975-8.055,5.106-12.391
	c2.592-9.935,2.085-20.134-1.426-28.718c-3.781-9.244-10.867-15.829-19.44-18.065c-17.078-4.456-35.493,9.286-41.061,30.627
	c-2.592,9.936-2.085,20.134,1.426,28.718C269.65,293.44,276.736,300.025,285.309,302.261z"/>
<path style="fill:#FCCF6F;" d="M293.307,295.156c-8.573-2.236-15.659-8.821-19.44-18.065c-3.512-8.584-4.018-18.782-1.426-28.718
	c1.932-7.405,5.412-13.892,9.845-19.024c-8.182,5.44-14.859,14.691-17.843,26.129c-2.592,9.936-2.085,20.134,1.426,28.718
	c3.781,9.244,10.867,15.829,19.44,18.065c11.971,3.124,23.5-2.792,31.254-11.703C309.777,295.116,301.65,297.332,293.307,295.156z"
	/>
<path style="fill:#FCDE76;" d="M377.77,275.121c-15.28-8.821-36.685-0.458-47.713,18.642c-5.133,8.892-7.35,18.859-6.24,28.068
	c1.195,9.916,6.28,18.144,13.953,22.572c13.636,7.872,30.244,1.61,40.428-8.938c2.816-2.917,5.259-6.192,7.286-9.703
	C396.51,306.662,393.05,283.945,377.77,275.121z"/>
<path style="fill:#FCCF6F;" d="M345.837,340.459c-7.672-4.429-12.758-12.656-13.953-22.572c-1.109-9.209,1.107-19.177,6.24-28.068
	c4.02-6.962,9.421-12.489,15.4-16.286c-9.087,3.192-17.698,10.238-23.467,20.23c-5.133,8.892-7.35,18.859-6.24,28.068
	c1.195,9.916,6.28,18.144,13.953,22.572c10.442,6.028,22.623,3.764,32.331-2.362C362.193,344.841,353.541,344.907,345.837,340.459z"
	/>
<path style="fill:#FCDE76;" d="M220.145,303.099c2.184,0,4.377-0.272,6.547-0.838c8.573-2.236,15.659-8.821,19.44-18.065
	c3.512-8.584,4.018-18.782,1.426-28.718c-5.567-21.341-23.986-35.078-41.061-30.627c-8.573,2.236-15.659,8.821-19.44,18.065
	c-3.512,8.584-4.018,18.783-1.426,28.718C190.491,290.263,205.143,303.1,220.145,303.099z"/>
<path style="fill:#FCCF6F;" d="M233.501,295.161c-2.17,0.565-4.363,0.838-6.547,0.838C211.952,296,197.3,283.163,192.44,264.534
	c-2.592-9.935-2.085-20.134,1.426-28.718c0.974-2.382,2.172-4.583,3.554-6.583c-4.429,3.283-8.028,7.973-10.363,13.683
	c-3.512,8.584-4.018,18.783-1.426,28.718c4.859,18.629,19.511,31.466,34.514,31.465c2.184,0,4.377-0.272,6.547-0.838
	c6.364-1.66,11.904-5.72,15.886-11.482C239.837,292.811,236.779,294.306,233.501,295.161z"/>
<path style="fill:#FCDE76;" d="M188.185,321.831c1.109-9.209-1.107-19.177-6.24-28.068c-11.027-19.101-32.429-27.464-47.713-18.641
	c-15.28,8.822-18.74,31.54-7.712,50.641c7.165,12.409,20.433,22.788,35.367,22.159c4.322-0.182,8.593-1.351,12.346-3.517
	C181.904,339.975,186.99,331.747,188.185,321.831z"/>
<path style="fill:#FCCF6F;" d="M182.164,336.797c-3.753,2.167-8.023,3.335-12.346,3.518c-14.935,0.628-28.202-9.75-35.367-22.159
	c-8.512-14.744-8.384-31.636-0.86-42.636c-14.728,9.084-17.943,31.417-7.073,50.244c7.165,12.409,20.433,22.788,35.367,22.159
	c4.322-0.182,8.593-1.351,12.346-3.518c3.43-1.98,6.338-4.724,8.618-8.034C182.621,336.513,182.397,336.662,182.164,336.797z"/>
<g>
</g>
<g>
</g>
<g>
</g>
<g>
</g>
<g>
</g>
<g>
</g>
<g>
</g>
<g>
</g>
<g>
</g>
<g>
</g>
<g>
</g>
<g>
</g>
<g>
</g>
<g>
</g>
<g>
</g>
</svg>
