<svg height="512pt" viewBox="0 -91 512 512" width="512pt" xmlns="http://www.w3.org/2000/svg"><path d="m490.6875 271.285156-18.824219-112.929687c-4.742187-28.46875-24.234375-47.726563-48.6875-48.328125-1.191406-6.035156-3.363281-11.875-6.460937-17.238282-8.675782-15.027343-23.652344-25.007812-40.472656-27.453124-2.445313-16.816407-12.429688-31.796876-27.453126-40.472657-15.027343-8.675781-32.988281-9.828125-48.777343-3.539062-10.527344-13.34375-26.664063-21.324219-44.011719-21.324219-17.582031 0-33.910156 8.195312-44.429688 21.859375-3.886718-.183594-7.707031 1.945313-9.492187 5.6875-2.378906 4.984375-.261719 10.953125 4.722656 13.332031 1.167969.554688 2.308594 1.179688 3.394531 1.847656 2.34375 1.441407 5.175782 1.855469 7.835938 1.144532 2.65625-.710938 4.902344-2.488282 6.207031-4.90625 6.316407-11.699219 18.488281-18.964844 31.761719-18.964844s25.445312 7.265625 31.757812 18.960938c1.308594 2.421874 3.554688 4.195312 6.214844 4.910156 2.652344.710937 5.488282.296875 7.832032-1.144532 11.316406-6.972656 25.488281-7.179687 36.984374-.542968 11.496094 6.636718 18.402344 19.015625 18.023438 32.300781-.078125 2.75.976562 5.410156 2.921875 7.355469 1.949219 1.945312 4.640625 3 7.359375 2.925781 13.304688-.398437 25.664062 6.527344 32.300781 18.023437 1.320313 2.285157 2.363281 4.710938 3.152344 7.210938h-293.09375c.789063-2.5 1.832031-4.925781 3.152344-7.210938 6.636719-11.496093 19.003906-18.425781 32.300781-18.023437 2.765625.074219 5.414062-.980469 7.359375-2.925781 1.945313-1.945313 3-4.605469 2.921875-7.355469-.035156-1.269531 0-2.570313.101562-3.863281.433594-5.507813-3.679687-10.320313-9.183593-10.753906-4.144531-.328126-7.878907 1.910156-9.671875 5.375-17.089844 2.277343-32.355469 12.324218-41.148438 27.546874-3.09375 5.367188-5.269531 11.207032-6.457031 17.242188-24.457031.597656-43.945313 19.859375-48.691406 48.324219l-18.824219 112.929687c-12.316406 3.734375-21.3125 15.191406-21.3125 28.714844 0 16.542969 13.457031 30 30 30h452c16.542969 0 30-13.457031 30-30 0-13.523438-8.996094-24.980469-21.3125-28.714844zm-430.824219-109.640625c2.433594-14.597656 11.785157-31.644531 30.136719-31.644531h332c18.351562 0 27.703125 17.046875 30.136719 31.644531l18.058593 108.355469h-428.390624zm422.136719 148.355469h-452c-5.515625 0-10-4.484375-10-10s4.484375-10 10-10h451.957031.03125.023438c5.507812.007812 9.988281 4.488281 9.988281 10 0 5.515625-4.484375 10-10 10zm0 0"/><path d="m243.628906 239.894531c3.296875 3.300781 7.691406 5.117188 12.371094 5.117188s9.074219-1.816407 12.375-5.117188l27.835938-27.835937c13.03125-13.035156 13.03125-34.242188 0-47.277344-10.878907-10.878906-27.449219-12.679688-40.210938-5.402344-12.761719-7.277344-29.328125-5.472656-40.207031 5.402344-13.035157 13.035156-13.035157 34.242188 0 47.28125zm-13.695312-60.972656c2.621094-2.617187 6.058594-3.925781 9.5-3.925781 3.4375 0 6.878906 1.308594 9.496094 3.925781 3.90625 3.90625 10.238281 3.90625 14.140624 0 5.238282-5.234375 13.757813-5.238281 18.996094 0 5.238282 5.238281 5.238282 13.757813 0 18.996094l-26.066406 26.066406-26.066406-26.066406c-5.234375-5.238281-5.234375-13.757813 0-18.996094zm0 0"/><path d="m199.539062 83.253906c5.523438 0 10-4.480468 10-10.003906s-4.476562-10-10-10c-5.523437 0-10 4.476562-10 10v.007812c0 5.523438 4.476563 9.996094 10 9.996094zm0 0"/><path d="m235.289062 88.75v.007812c0 5.523438 4.476563 9.996094 10 9.996094 5.523438 0 10-4.480468 10-10.003906s-4.476562-10-10-10c-5.523437 0-10 4.476562-10 10zm0 0"/><path d="m261.289062 50.742188c0-5.523438-4.476562-10-10-10-5.523437 0-10 4.476562-10 10v.007812c0 5.523438 4.476563 9.996094 10 9.996094 5.523438 0 10-4.480469 10-10.003906zm0 0"/><path d="m168.21875 43.523438c1.789062 0 3.597656-.476563 5.234375-1.484376 4.703125-2.894531 6.167969-9.054687 3.273437-13.757812-2.894531-4.703125-9.054687-6.167969-13.753906-3.273438l-.007812.003907c-4.703125 2.894531-6.167969 9.050781-3.273438 13.753906 1.890625 3.070313 5.167969 4.757813 8.527344 4.757813zm0 0"/><path d="m372.003906 249.996094h59.992188c5.523437 0 10-4.476563 10-10 0-5.519532-4.476563-10-10-10h-59.992188c-5.523437 0-10 4.480468-10 10 0 5.523437 4.476563 10 10 10zm0 0"/><path d="m332.007812 249.996094c5.519532 0 10-4.476563 10-10 0-5.519532-4.480468-10-10-10h-.011718c-5.519532 0-9.992188 4.480468-9.992188 10 0 5.523437 4.480469 10 10.003906 10zm0 0"/></svg>