<svg id="Layer_5" enable-background="new 0 0 64 64" height="512" viewBox="0 0 64 64" width="512" xmlns="http://www.w3.org/2000/svg"><g><g><g><path d="m16 21v3h-11c-1.66 0-3-1.34-3-3 0-.83.34-1.58.88-2.12s1.29-.88 2.12-.88h8c1.66 0 3 1.34 3 3z" fill="#ccd1d9"/></g><g><circle cx="20" cy="58" fill="#ccd1d9" r="4"/></g><g><circle cx="46" cy="58" fill="#ccd1d9" r="4"/></g><g><path d="m48 33.88v10.12c0 2.21-1.79 4-4 4h-28v-20l18.53 1.16c2.47 2.54 5.77 4.26 9.47 4.72.66.08 1.32.12 2 .12s1.34-.04 2-.12z" fill="#ff826e"/></g><g><path d="m62 18c0 8.16-6.11 14.89-14 15.88-.66.08-1.32.12-2 .12s-1.34-.04-2-.12c-3.7-.46-7-2.18-9.47-4.72-2.8-2.88-4.53-6.82-4.53-11.16 0-8.84 7.16-16 16-16s16 7.16 16 16z" fill="#69d6f4"/></g><g><path d="m46 16c1.1 0 2 .9 2 2s-.9 2-2 2-2-.9-2-2c0-.55.22-1.05.59-1.41.36-.37.86-.59 1.41-.59z" fill="#fcd770"/></g></g><g><path d="m44 49c2.757 0 5-2.243 5-5v-9.281c7.946-1.423 14-8.37 14-16.719 0-9.374-7.626-17-17-17s-17 7.626-17 17c0 3.747 1.233 7.203 3.295 10.016l-15.295-.955v-6.061c0-2.206-1.794-4-4-4h-8c-2.206 0-4 1.794-4 4s1.794 4 4 4h10v25c0 1.641.806 3.088 2.031 4-1.225.912-2.031 2.359-2.031 4 0 2.757 2.243 5 5 5s5-2.243 5-5c0-1.13-.391-2.162-1.026-3h18.051c-.634.838-1.025 1.87-1.025 3 0 2.757 2.243 5 5 5s5-2.243 5-5-2.243-5-5-5h-26c-1.654 0-3-1.346-3-3v-1zm-29-26h-10c-1.103 0-2-.897-2-2s.897-2 2-2h8c1.103 0 2 .897 2 2zm8 35c0 1.654-1.346 3-3 3s-3-1.346-3-3 1.346-3 3-3 3 1.346 3 3zm26 0c0 1.654-1.346 3-3 3s-3-1.346-3-3 1.346-3 3-3 3 1.346 3 3zm-6-21h-4v-3.526c1.26.572 2.599.993 4 1.244zm-5.485-11.929-2.79 2.79c-2.105-2.404-3.45-5.478-3.674-8.861h3.949v-2h-3.949c.225-3.383 1.569-6.457 3.674-8.861l2.79 2.79 1.414-1.414-2.79-2.79c2.404-2.105 5.478-3.45 8.861-3.674v3.949h2v-3.949c3.383.225 6.457 1.569 8.861 3.674l-2.79 2.79 1.414 1.414 2.79-2.79c2.105 2.404 3.45 5.478 3.674 8.861h-3.949v2h3.949c-.225 3.383-1.569 6.457-3.674 8.861l-2.79-2.79-1.414 1.414 2.79 2.79c-2.404 2.105-5.478 3.45-8.861 3.674v-3.949h-2v3.949c-3.383-.225-6.457-1.569-8.861-3.674l2.79-2.79zm-3.4 5.063c1.154 1.13 2.465 2.099 3.902 2.866h-1.017v10h2v-4h4v4h2v-8.051c.333.02.662.051 1 .051s.667-.031 1-.051v9.051c0 1.654-1.346 3-3 3h-27v-17.936z"/><path d="m22.707 36.879-3.707 3.707v2.414h6v-2h-3.586l2.707-2.707c.567-.566.879-1.32.879-2.122v-.171c0-1.654-1.346-3-3-3s-3 1.346-3 3v1h2v-1c0-.551.449-1 1-1s1 .449 1 1v.171c0 .267-.104.519-.293.708z"/><path d="m31 43h2v-2h2v-2h-2v-6h-2.566l-3.434 5.723v2.277h4zm-1.834-4 1.834-3.056v3.056z"/><path d="m43 18c0 1.654 1.346 3 3 3s3-1.346 3-3c0-1.302-.839-2.402-2-2.816v-4.184h-2v4.184c-.098.035-.193.072-.285.116l-4.008-4.008-1.414 1.414 4.008 4.008c-.188.392-.301.824-.301 1.286zm3 1c-.551 0-1-.449-1-1s.449-1 1-1 1 .449 1 1-.449 1-1 1z"/></g></g></svg>